G04 DipTrace 3.2.0.1*
G04 Speed-SensitiveWiperSwitchReplacement-Rev03(NoUnmaskedTraces)-BottomMask.gbs*
%MOIN*%
G04 #@! TF.FileFunction,Soldermask,Bot*
G04 #@! TF.Part,Single*
%ADD21C,0.059181*%
%ADD47C,0.108*%
%ADD52C,0.04737*%
%ADD56O,0.070992X0.094614*%
%ADD58R,0.070992X0.094614*%
%ADD68O,0.102488X0.149732*%
%ADD70O,0.149732X0.102488*%
%ADD72C,0.067055*%
%ADD74R,0.067055X0.067055*%
%ADD76O,0.094614X0.070992*%
%ADD78R,0.094614X0.070992*%
%ADD86C,0.06115*%
%ADD88R,0.06115X0.06115*%
%FSLAX26Y26*%
G04*
G70*
G90*
G75*
G01*
G04 BotMask*
%LPD*%
D52*
X475000Y1175000D3*
Y1125000D3*
Y1025000D3*
Y1075000D3*
Y975000D3*
X525000Y1000000D3*
Y1100000D3*
Y1050000D3*
Y1150000D3*
X675000Y75000D3*
X625000Y100000D3*
Y50000D3*
Y150000D3*
Y200000D3*
X675000Y125000D3*
X575000D3*
Y75000D3*
X675000Y175000D3*
X484252Y98425D2*
D21*
X476378D1*
D88*
X450000Y1600000D3*
D86*
X528740D3*
X1791339Y482283D2*
D21*
X1783465D1*
D47*
X118000Y984000D3*
X795276Y582677D2*
D21*
X787402D1*
X893701Y933071D2*
X885827D1*
D78*
X413386Y631890D3*
D76*
Y730315D3*
D74*
X1025000Y1750000D3*
D72*
X925000D3*
X825000D3*
X725000D3*
X625000D3*
X525000D3*
D74*
X1700000Y1550000D3*
D72*
X1600000D3*
X1500000D3*
D70*
X1450000Y875787D3*
D68*
X1253150Y974213D3*
X1646850D3*
X1253150Y1375787D3*
X1646850D3*
X1641732Y610236D2*
D21*
X1633858D1*
X366142Y1043307D2*
X358268D1*
D58*
X1275000Y450000D3*
D56*
X1373425D3*
X263780Y98425D2*
D21*
X255906D1*
M02*
