G04 DipTrace 3.2.0.1*
G04 Speed-SensitiveWiperSwitchReplacement-Rev03(NoUnmaskedTraces)-BottomSilk.gbo*
%MOIN*%
G04 #@! TF.FileFunction,Legend,Bot*
G04 #@! TF.Part,Single*
%ADD10C,0.009843*%
%ADD96C,0.006176*%
%FSLAX26Y26*%
G04*
G70*
G90*
G75*
G01*
G04 BotSilk*
%LPD*%
X587795Y1600000D2*
D10*
G02X587795Y1600000I-98421J0D01*
G01*
X363386Y1611811D2*
Y1588189D1*
X351575Y1600000D2*
X375197D1*
X513780Y535431D2*
X61017D1*
Y826774D1*
X513780D1*
Y535431D1*
X1705906Y1442720D2*
Y1486024D1*
X1194094D1*
Y1442720D1*
X1253157Y1066780D2*
Y1106067D1*
X1361406D1*
X1646843Y1066780D2*
Y1106067D1*
X1538594D1*
X1450000Y948650D2*
Y1076618D1*
Y1165165D2*
Y1243941D1*
X1548421Y1391520D1*
X1577953Y1371843D2*
X1538594D1*
X1322047D2*
X1361406D1*
X1538594Y1106067D2*
G03X1479531Y1106067I-29531J51D01*
G01*
G03X1420469Y1106067I-29531J51D01*
G01*
G03X1361406Y1106067I-29531J51D01*
G01*
X1513004Y816732D2*
X1705906D1*
Y911236D1*
X1386996Y816732D2*
X1194094D1*
Y911236D1*
X1705906Y1037197D2*
Y1312811D1*
X1194094Y1037197D2*
Y1312811D1*
X1175000Y87795D2*
X1466339D1*
Y540551D1*
X1175000D1*
Y87795D1*
G36*
X1250000Y25000D2*
X1275000Y75000D1*
X1300000Y25000D1*
X1250000D1*
G37*
G36*
X1125000Y1825000D2*
X1275000D1*
Y1700000D1*
X1125000D1*
Y1825000D1*
G37*
G36*
X493751Y1600000D2*
Y1700000D1*
X543751Y1681251D1*
X575000Y1643751D1*
X587500Y1600000D1*
X556251D1*
Y1631249D1*
X500000D1*
Y1600000D1*
X493751D1*
G37*
G36*
D2*
Y1500000D1*
X543751Y1518751D1*
X575000Y1556249D1*
X587500Y1600000D1*
X556251D1*
Y1568751D1*
X500000D1*
Y1600000D1*
X493751D1*
G37*
X473865Y1478461D2*
D96*
X475386Y1482264D1*
X478464Y1486111D1*
X481506Y1488012D1*
X487625D1*
X490702Y1486111D1*
X493744Y1482264D1*
X495301Y1478461D1*
X496822Y1472713D1*
Y1463118D1*
X495301Y1457415D1*
X493744Y1453568D1*
X490702Y1449765D1*
X487625Y1447820D1*
X481506D1*
X478464Y1449765D1*
X475386Y1453568D1*
X473865Y1457415D1*
X460907Y1487968D2*
X444105D1*
X453266Y1472669D1*
X448668D1*
X445626Y1470768D1*
X444105Y1468866D1*
X442548Y1463118D1*
Y1459316D1*
X444105Y1453568D1*
X447147Y1449721D1*
X451745Y1447820D1*
X456344D1*
X460907Y1449721D1*
X462428Y1451667D1*
X463984Y1455469D1*
X321122Y521424D2*
Y481232D1*
X289805Y521424D2*
Y481232D1*
X311241Y521424D1*
Y481232D1*
X269206Y521424D2*
Y481232D1*
X279924Y521424D2*
X258489D1*
X248607D2*
X236369Y481232D1*
X224130Y521424D1*
X205052D2*
X208129Y519523D1*
X211171Y515676D1*
X212728Y511873D1*
X214249Y506125D1*
Y496530D1*
X212728Y490827D1*
X211171Y486980D1*
X208129Y483177D1*
X205052Y481232D1*
X198932D1*
X195890Y483177D1*
X192813Y486980D1*
X191292Y490827D1*
X189771Y496530D1*
Y506125D1*
X191292Y511873D1*
X192813Y515676D1*
X195890Y519523D1*
X198932Y521424D1*
X205052D1*
X179890D2*
Y481232D1*
X161531D1*
X1135516Y1170874D2*
X1175708D1*
X1135516Y1149439D2*
X1162311Y1170874D1*
X1152716Y1163234D2*
X1175708Y1149439D1*
X1143210Y1139558D2*
X1141264Y1136480D1*
X1135560Y1131882D1*
X1175708D1*
X1414225Y74228D2*
X1401986Y34036D1*
X1389747Y74228D1*
X1358430Y68480D2*
X1361472Y72327D1*
X1366071Y74228D1*
X1372190D1*
X1376789Y72327D1*
X1379866Y68480D1*
Y64678D1*
X1378310Y60831D1*
X1376789Y58930D1*
X1373747Y57028D1*
X1364550Y53182D1*
X1361472Y51280D1*
X1359951Y49335D1*
X1358430Y45532D1*
Y39784D1*
X1361472Y35982D1*
X1366071Y34036D1*
X1372190D1*
X1376789Y35982D1*
X1379866Y39784D1*
X1327114Y68480D2*
X1330156Y72327D1*
X1334754Y74228D1*
X1340873D1*
X1345472Y72327D1*
X1348549Y68480D1*
Y64678D1*
X1346993Y60831D1*
X1345472Y58930D1*
X1342430Y57028D1*
X1333233Y53182D1*
X1330156Y51280D1*
X1328635Y49335D1*
X1327114Y45532D1*
Y39784D1*
X1330156Y35982D1*
X1334754Y34036D1*
X1340873D1*
X1345472Y35982D1*
X1348549Y39784D1*
M02*
