M48
INCH
T01C0.0157
T02C0.0236
T03C0.0315
T04C0.0354
T05C0.0394
T06C0.0512
T07C0.0591
T08C0.108
%
T01
X+002250Y+017250
X+002250Y+016750
X+002250Y+016250
X+000750Y+014000
X+000750Y+012000
X+002750Y+009250
X+002000Y+008000
X+000750Y+008250
X+003000Y+005750
X+003250Y+003500
X+006250Y+003250
X+007500Y+004500
X+007000Y+006750
X+005750Y+007500
X+006750Y+009000
X+007750Y+008750
X+008500Y+007500
X+008000Y+010250
X+007750Y+013750
X+007000Y+013750
X+009000Y+013750
X+010250Y+015000
X+011000Y+015500
X+010250Y+016750
X+008250Y+015750
X+007750Y+015750
X+007750Y+016250
X+006750Y+016250
X+006250Y+015750
X+012500Y+016750
X+013250Y+013000
X+014500Y+010000
X+012250Y+008500
X+012500Y+007750
X+011500Y+006250
X+014000Y+006000
X+015000Y+003750
X+016750Y+004500
X+018250Y+003750
X+018250Y+005750
X+018250Y+008000
X+016750Y+008250
X+018250Y+012000
X+018250Y+016000
X+011000Y+003750
X+009500Y+002250
X+008000Y+000750
X+013250Y+000750
X+018250Y+001250
X+000750Y+000750
T02
X+004750Y+011750
X+004750Y+011250
X+004750Y+010750
X+004750Y+010250
X+004750Y+009750
X+005250Y+010000
X+005250Y+010500
X+005250Y+011000
X+005250Y+011500
X+006250Y+002000
X+006250Y+001500
X+006250Y+001000
X+006250Y+000500
X+006750Y+000750
X+006750Y+001250
X+006750Y+001750
X+005750Y+001250
X+005750Y+000750
T03
X+004500Y+016000
X+005287Y+016000
T04
X+010250Y+017500
X+009250Y+017500
X+008250Y+017500
X+007250Y+017500
X+006250Y+017500
X+005250Y+017500
X+015000Y+015500
X+016000Y+015500
X+017000Y+015500
T05
X+004134Y+006319
X+004134Y+007303
X+012750Y+004500
X+013734Y+004500
T07
X+014500Y+008758
X+012531Y+009742
X+016469Y+009742
X+016469Y+013758
X+012531Y+013758
T00
M30
