G04 DipTrace 3.2.0.1*
G04 Speed-SensitiveWiperSwitchReplacement-Rev03(NoUnmaskedTraces)-TopMask.gts*
%MOIN*%
G04 #@! TF.FileFunction,Soldermask,Top*
G04 #@! TF.Part,Single*
%ADD47C,0.108*%
%ADD52C,0.04737*%
%ADD56O,0.070992X0.094614*%
%ADD58R,0.070992X0.094614*%
%ADD60R,0.031622X0.08674*%
%ADD62R,0.08674X0.031622*%
%ADD64R,0.070992X0.078866*%
%ADD66R,0.04737X0.063118*%
%ADD68O,0.102488X0.149732*%
%ADD70O,0.149732X0.102488*%
%ADD72C,0.067055*%
%ADD74R,0.067055X0.067055*%
%ADD76O,0.094614X0.070992*%
%ADD78R,0.094614X0.070992*%
%ADD80R,0.039496X0.070992*%
%ADD82R,0.070992X0.039496*%
%ADD84R,0.067055X0.059181*%
%ADD86C,0.06115*%
%ADD88R,0.06115X0.06115*%
%ADD90R,0.070992X0.114299*%
%ADD92R,0.059181X0.067055*%
%ADD94O,0.157606X0.12611*%
%FSLAX26Y26*%
G04*
G70*
G90*
G75*
G01*
G04 TopMask*
%LPD*%
D52*
X475000Y1175000D3*
Y1125000D3*
Y1025000D3*
Y1075000D3*
Y975000D3*
X525000Y1000000D3*
Y1100000D3*
Y1050000D3*
Y1150000D3*
X675000Y75000D3*
X625000Y100000D3*
Y50000D3*
Y150000D3*
Y200000D3*
X675000Y125000D3*
X575000D3*
Y75000D3*
X675000Y175000D3*
D94*
X480315Y98425D3*
D92*
X187402Y1475000D3*
X112598D3*
D90*
X217618Y1300000D3*
X107382D3*
D88*
X450000Y1600000D3*
D86*
X528740D3*
D84*
X525000Y1337598D3*
Y1412402D3*
X1025000D3*
Y1337598D3*
X1225000Y700000D3*
Y625197D3*
D92*
X125000Y575000D3*
X199803D3*
X550000D3*
X624803D3*
X1125000Y900000D3*
X1050197D3*
D82*
X1650000Y1108071D3*
Y1241929D3*
D80*
X125000Y475000D3*
X258858D3*
D82*
X1125000Y700000D3*
Y566142D3*
X1025000Y700000D3*
Y566142D3*
D80*
X125000Y375000D3*
X258858D3*
X550000Y475000D3*
X416142D3*
X550000Y375000D3*
X416142D3*
D82*
X1250000Y1108071D3*
Y1241929D3*
D94*
X1787402Y482283D3*
D47*
X118000Y984000D3*
D94*
X791339Y582677D3*
X889764Y933071D3*
D78*
X413386Y631890D3*
D76*
Y730315D3*
D74*
X1025000Y1750000D3*
D72*
X925000D3*
X825000D3*
X725000D3*
X625000D3*
X525000D3*
D74*
X1700000Y1550000D3*
D72*
X1600000D3*
X1500000D3*
D70*
X1450000Y875787D3*
D68*
X1253150Y974213D3*
X1646850D3*
X1253150Y1375787D3*
X1646850D3*
D94*
X1637795Y610236D3*
X362205Y1043307D3*
D66*
X1487400Y1168307D3*
X1412597D3*
X1449999Y1081693D3*
D92*
X1412598Y1400000D3*
X1487402D3*
X125000Y675000D3*
X199803D3*
D84*
X1175000Y1750000D3*
Y1675197D3*
D92*
X550000Y875000D3*
X475197D3*
D64*
X1125000Y450000D3*
X1014764D3*
X225000Y250000D3*
X114764D3*
D92*
X550000Y675000D3*
X624803D3*
D64*
X375000Y250000D3*
X485236D3*
D92*
X1050000Y1100000D3*
X1124803D3*
X1050000Y1000000D3*
X1124803D3*
X1487402Y1300000D3*
X1412598D3*
X875000Y1100000D3*
X800197D3*
X1525000Y450000D3*
X1599803D3*
D62*
X331299Y1600000D3*
Y1650000D3*
Y1700000D3*
Y1750000D3*
X118701D3*
Y1700000D3*
Y1650000D3*
Y1600000D3*
D60*
X625000Y1268701D3*
X675000D3*
X725000D3*
X775000D3*
X825000D3*
X875000D3*
X925000D3*
Y1481299D3*
X875000D3*
X825000D3*
X775000D3*
X725000D3*
X675000D3*
X625000D3*
D58*
X1275000Y450000D3*
D56*
X1373425D3*
D94*
X259843Y98425D3*
M02*
