G04 DipTrace 3.2.0.1*
G04 Speed-SensitiveWiperSwitchReplacement-Rev03(NoUnmaskedTraces)-TopSilk.gto*
%MOIN*%
G04 #@! TF.FileFunction,Legend,Top*
G04 #@! TF.Part,Single*
%ADD10C,0.009843*%
%ADD27C,0.015749*%
%ADD29C,0.015746*%
%ADD96C,0.006176*%
%ADD98C,0.00772*%
%FSLAX26Y26*%
G04*
G70*
G90*
G75*
G01*
G04 TopSilk*
%LPD*%
X228761Y1500571D2*
D10*
Y1449429D1*
X166831Y1349217D2*
Y1250783D1*
X174280Y1349217D2*
Y1250783D1*
Y1349217D2*
X150720D1*
X174280Y1250783D2*
X150720D1*
X550571Y1296239D2*
X499429D1*
X999429Y1453761D2*
X1050571D1*
X1199429Y741360D2*
X1250571D1*
X83640Y549429D2*
Y600571D1*
X508640Y549429D2*
Y600571D1*
X1166360Y925571D2*
Y874429D1*
X1618501Y1139559D2*
Y1210438D1*
X1681496Y1139559D2*
Y1210438D1*
D27*
X1649999Y1070669D3*
X156488Y506499D2*
D10*
X227367D1*
X156488Y443504D2*
X227367D1*
D29*
X87598Y475001D3*
X1156499Y668512D2*
D10*
Y597633D1*
X1093504Y668512D2*
Y597633D1*
D27*
X1125001Y737402D3*
X1056499Y668512D2*
D10*
Y597633D1*
X993504Y668512D2*
Y597633D1*
D27*
X1025001Y737402D3*
X156488Y406499D2*
D10*
X227367D1*
X156488Y343504D2*
X227367D1*
D29*
X87598Y375001D3*
X518512Y443501D2*
D10*
X447633D1*
X518512Y506496D2*
X447633D1*
D29*
X587402Y474999D3*
X518512Y343501D2*
D10*
X447633D1*
X518512Y406496D2*
X447633D1*
D29*
X587402Y374999D3*
X1218501Y1139559D2*
D10*
Y1210438D1*
X1281496Y1139559D2*
Y1210438D1*
D27*
X1249999Y1070669D3*
X1075000Y1800000D2*
D10*
X475000D1*
X1075000Y1700000D2*
X475000D1*
X1075000Y1800000D2*
Y1700000D1*
X475000Y1800000D2*
Y1700000D1*
X1750000Y1600000D2*
Y1500000D1*
X1450000D1*
Y1600000D2*
Y1500000D1*
X1750000Y1600000D2*
X1450000D1*
D27*
X1528738Y1168306D3*
X1506249Y1125000D2*
D10*
X1393746D1*
X1081661Y481465D2*
X1058102D1*
X1081661Y418535D2*
X1058102D1*
X181661Y281465D2*
X158102D1*
X181661Y218535D2*
X158102D1*
X418339D2*
X441898D1*
X418339Y281465D2*
X441898D1*
X276188Y1576573D2*
Y1773427D1*
X173812Y1576573D2*
Y1773427D1*
X276188D2*
X173812D1*
X244694Y1576573D2*
X276188D1*
X205306D2*
X173812D1*
X244694D2*
G03X205306Y1576573I-19694J-9D01*
G01*
X605703Y1323812D2*
X944297D1*
X605703Y1426188D2*
X944297D1*
Y1323812D2*
Y1426188D1*
X605703Y1323812D2*
Y1355306D1*
Y1394694D2*
Y1426188D1*
Y1355306D2*
G03X605703Y1394694I12J19694D01*
G01*
G36*
X1250000Y75000D2*
X1275000Y25000D1*
X1300000Y75000D1*
X1250000D1*
G37*
X758877Y48031D2*
D96*
X718685Y35757D1*
X758877Y23518D1*
X745480Y28116D2*
Y43432D1*
X718685Y57912D2*
X747381D1*
X753129Y59433D1*
X756932Y62510D1*
X758877Y67109D1*
Y70151D1*
X756932Y74749D1*
X753129Y77827D1*
X747381Y79348D1*
X718685D1*
Y99947D2*
X758877D1*
X718685Y89229D2*
Y110664D1*
Y129742D2*
X720586Y126665D1*
X724433Y123623D1*
X728236Y122067D1*
X733984Y120546D1*
X743578D1*
X749282Y122067D1*
X753129Y123623D1*
X756932Y126665D1*
X758877Y129742D1*
Y135862D1*
X756932Y138904D1*
X753129Y141981D1*
X749282Y143502D1*
X743578Y145023D1*
X733984D1*
X728236Y143502D1*
X724433Y141981D1*
X720586Y138904D1*
X718685Y135862D1*
Y129742D1*
X724433Y176340D2*
X720586Y173298D1*
X718685Y168700D1*
Y162580D1*
X720586Y157982D1*
X724433Y154904D1*
X728236D1*
X732082Y156461D1*
X733984Y157982D1*
X735885Y161024D1*
X739732Y170221D1*
X741633Y173298D1*
X743578Y174819D1*
X747381Y176340D1*
X753129D1*
X756932Y173298D1*
X758877Y168700D1*
Y162580D1*
X756932Y157982D1*
X753129Y154904D1*
X718685Y196939D2*
X758877D1*
X718685Y186221D2*
Y207657D1*
Y226735D2*
X720586Y223658D1*
X724433Y220616D1*
X728236Y219059D1*
X733984Y217538D1*
X743578D1*
X749282Y219059D1*
X753129Y220616D1*
X756932Y223658D1*
X758877Y226735D1*
Y232854D1*
X756932Y235896D1*
X753129Y238974D1*
X749282Y240495D1*
X743578Y242016D1*
X733984D1*
X728236Y240495D1*
X724433Y238974D1*
X720586Y235897D1*
X718685Y232854D1*
Y226735D1*
X739732Y251897D2*
Y265692D1*
X737830Y270255D1*
X735885Y271812D1*
X732082Y273333D1*
X726334D1*
X722532Y271812D1*
X720586Y270255D1*
X718685Y265692D1*
Y251897D1*
X758877D1*
X251879Y1477700D2*
X248076Y1476179D1*
X244229Y1473102D1*
X242328Y1470060D1*
Y1463940D1*
X244229Y1460863D1*
X248076Y1457821D1*
X251879Y1456264D1*
X257627Y1454743D1*
X267222D1*
X272925Y1456264D1*
X276772Y1457821D1*
X280575Y1460863D1*
X282520Y1463940D1*
Y1470060D1*
X280575Y1473102D1*
X276772Y1476179D1*
X272925Y1477700D1*
X250022Y1487581D2*
X248076Y1490659D1*
X242372Y1495257D1*
X282520D1*
X272232Y1295820D2*
X268429Y1294299D1*
X264582Y1291222D1*
X262681Y1288180D1*
Y1282060D1*
X264582Y1278983D1*
X268429Y1275941D1*
X272232Y1274384D1*
X277980Y1272863D1*
X287575D1*
X293278Y1274384D1*
X297125Y1275941D1*
X300928Y1278983D1*
X302873Y1282060D1*
Y1288180D1*
X300928Y1291222D1*
X297125Y1294299D1*
X293278Y1295820D1*
X272276Y1307258D2*
X270375D1*
X266528Y1308779D1*
X264627Y1310300D1*
X262725Y1313377D1*
Y1319496D1*
X264627Y1322538D1*
X266528Y1324059D1*
X270375Y1325616D1*
X274177D1*
X278024Y1324059D1*
X283728Y1321017D1*
X302873Y1305701D1*
Y1327137D1*
X446445Y1362175D2*
X442642Y1360654D1*
X438795Y1357577D1*
X436894Y1354535D1*
Y1348415D1*
X438795Y1345338D1*
X442642Y1342296D1*
X446445Y1340739D1*
X452193Y1339218D1*
X461787D1*
X467491Y1340739D1*
X471338Y1342296D1*
X475141Y1345338D1*
X477086Y1348415D1*
Y1354535D1*
X475141Y1357577D1*
X471338Y1360654D1*
X467491Y1362175D1*
X477086Y1387372D2*
X436938D1*
X463689Y1372056D1*
Y1395013D1*
X1077645Y1378705D2*
X1073843Y1377184D1*
X1069996Y1374106D1*
X1068095Y1371064D1*
Y1364945D1*
X1069996Y1361867D1*
X1073843Y1358825D1*
X1077645Y1357269D1*
X1083393Y1355748D1*
X1092988D1*
X1098692Y1357269D1*
X1102539Y1358825D1*
X1106341Y1361867D1*
X1108287Y1364945D1*
Y1371064D1*
X1106341Y1374106D1*
X1102539Y1377184D1*
X1098692Y1378705D1*
X1068139Y1406944D2*
Y1391663D1*
X1085339Y1390142D1*
X1083437Y1391663D1*
X1081492Y1396261D1*
Y1400825D1*
X1083437Y1405423D1*
X1087240Y1408500D1*
X1092988Y1410021D1*
X1096791D1*
X1102539Y1408500D1*
X1106385Y1405423D1*
X1108287Y1400824D1*
Y1396261D1*
X1106385Y1391663D1*
X1104440Y1390142D1*
X1100637Y1388586D1*
X1277645Y667081D2*
X1273843Y665560D1*
X1269996Y662483D1*
X1268095Y659441D1*
Y653321D1*
X1269996Y650244D1*
X1273843Y647202D1*
X1277645Y645645D1*
X1283393Y644124D1*
X1292988D1*
X1298692Y645645D1*
X1302539Y647202D1*
X1306341Y650244D1*
X1308287Y653321D1*
Y659441D1*
X1306341Y662483D1*
X1302539Y665560D1*
X1298692Y667081D1*
X1273843Y695321D2*
X1270040Y693800D1*
X1268139Y689201D1*
Y686159D1*
X1270040Y681561D1*
X1275788Y678483D1*
X1285339Y676962D1*
X1294889D1*
X1302539Y678483D1*
X1306385Y681561D1*
X1308287Y686159D1*
Y687680D1*
X1306385Y692243D1*
X1302539Y695321D1*
X1296791Y696842D1*
X1294889D1*
X1289141Y695321D1*
X1285339Y692243D1*
X1283437Y687680D1*
Y686159D1*
X1285339Y681561D1*
X1289141Y678483D1*
X1294889Y676962D1*
X34613Y570820D2*
X30810Y569299D1*
X26963Y566222D1*
X25062Y563180D1*
Y557060D1*
X26963Y553983D1*
X30810Y550941D1*
X34613Y549384D1*
X40361Y547863D1*
X49955D1*
X55659Y549384D1*
X59506Y550941D1*
X63309Y553983D1*
X65254Y557060D1*
Y563180D1*
X63309Y566222D1*
X59506Y569299D1*
X55659Y570820D1*
X65254Y586821D2*
X25106Y602137D1*
Y580701D1*
X673511Y570838D2*
X669709Y569317D1*
X665862Y566239D1*
X663961Y563197D1*
Y557078D1*
X665862Y554000D1*
X669709Y550958D1*
X673511Y549402D1*
X679259Y547881D1*
X688854D1*
X694558Y549402D1*
X698405Y550958D1*
X702207Y554000D1*
X704153Y557078D1*
Y563197D1*
X702207Y566239D1*
X698405Y569317D1*
X694558Y570838D1*
X664005Y588359D2*
X665906Y583796D1*
X669709Y582240D1*
X673556D1*
X677358Y583796D1*
X679304Y586838D1*
X681205Y592958D1*
X683106Y597556D1*
X686953Y600598D1*
X690755Y602119D1*
X696503D1*
X700306Y600598D1*
X702251Y599077D1*
X704153Y594479D1*
Y588359D1*
X702251Y583796D1*
X700306Y582240D1*
X696503Y580719D1*
X690755D1*
X686953Y582240D1*
X683106Y585317D1*
X681205Y589880D1*
X679304Y596000D1*
X677358Y599077D1*
X673556Y600598D1*
X669709D1*
X665906Y599077D1*
X664005Y594479D1*
Y588359D1*
X1092063Y847355D2*
X1090542Y851157D1*
X1087465Y855004D1*
X1084423Y856905D1*
X1078303D1*
X1075226Y855004D1*
X1072184Y851157D1*
X1070628Y847355D1*
X1069107Y841607D1*
Y832012D1*
X1070628Y826308D1*
X1072184Y822462D1*
X1075226Y818659D1*
X1078303Y816713D1*
X1084423D1*
X1087465Y818659D1*
X1090542Y822462D1*
X1092063Y826308D1*
X1121859Y843508D2*
X1120303Y837760D1*
X1117261Y833913D1*
X1112662Y832012D1*
X1111141D1*
X1106543Y833913D1*
X1103501Y837760D1*
X1101945Y843508D1*
Y845409D1*
X1103501Y851157D1*
X1106543Y854960D1*
X1111141Y856861D1*
X1112662D1*
X1117261Y854960D1*
X1120303Y851157D1*
X1121859Y843508D1*
Y833913D1*
X1120303Y824363D1*
X1117261Y818615D1*
X1112662Y816713D1*
X1109620D1*
X1105022Y818615D1*
X1103501Y822462D1*
X1695063Y1140740D2*
X1735255D1*
Y1151458D1*
X1733310Y1156056D1*
X1729507Y1159134D1*
X1725660Y1160655D1*
X1719956Y1162176D1*
X1710362D1*
X1704614Y1160655D1*
X1700811Y1159134D1*
X1696964Y1156056D1*
X1695063Y1151458D1*
Y1140740D1*
X1702757Y1172057D2*
X1700811Y1175134D1*
X1695107Y1179733D1*
X1735255D1*
X21146Y448625D2*
X61338D1*
Y459343D1*
X59393Y463941D1*
X55590Y467019D1*
X51743Y468540D1*
X46039Y470061D1*
X36445D1*
X30697Y468540D1*
X26894Y467019D1*
X23047Y463941D1*
X21146Y459343D1*
Y448625D1*
X30741Y481498D2*
X28840D1*
X24993Y483019D1*
X23091Y484540D1*
X21190Y487618D1*
Y493737D1*
X23092Y496779D1*
X24993Y498300D1*
X28840Y499857D1*
X32642D1*
X36489Y498300D1*
X42193Y495258D1*
X61338Y479942D1*
Y501378D1*
X1098625Y536827D2*
Y496635D1*
X1109343D1*
X1113941Y498580D1*
X1117019Y502383D1*
X1118540Y506230D1*
X1120061Y511933D1*
Y521528D1*
X1118540Y527276D1*
X1117019Y531079D1*
X1113941Y534925D1*
X1109343Y536827D1*
X1098625D1*
X1133019Y536783D2*
X1149821D1*
X1140660Y521484D1*
X1145258D1*
X1148300Y519583D1*
X1149821Y517681D1*
X1151378Y511933D1*
Y508131D1*
X1149821Y502383D1*
X1146779Y498536D1*
X1142181Y496635D1*
X1137582D1*
X1133019Y498536D1*
X1131498Y500482D1*
X1129942Y504284D1*
X997865Y536827D2*
Y496635D1*
X1008582D1*
X1013181Y498580D1*
X1016258Y502383D1*
X1017779Y506230D1*
X1019300Y511933D1*
Y521528D1*
X1017779Y527276D1*
X1016258Y531079D1*
X1013181Y534925D1*
X1008582Y536827D1*
X997865D1*
X1044498Y496635D2*
Y536783D1*
X1029181Y510032D1*
X1052138D1*
X21146Y348625D2*
X61338D1*
Y359343D1*
X59393Y363941D1*
X55590Y367019D1*
X51743Y368540D1*
X46039Y370061D1*
X36445D1*
X30697Y368540D1*
X26894Y367019D1*
X23047Y363941D1*
X21146Y359343D1*
Y348625D1*
X21190Y398300D2*
Y383019D1*
X38390Y381498D1*
X36489Y383019D1*
X34543Y387618D1*
Y392181D1*
X36489Y396779D1*
X40291Y399857D1*
X46039Y401378D1*
X49842D1*
X55590Y399857D1*
X59437Y396779D1*
X61338Y392181D1*
Y387618D1*
X59437Y383019D1*
X57491Y381498D1*
X53689Y379942D1*
X608843Y449401D2*
X649035D1*
Y460119D1*
X647089Y464717D1*
X643287Y467794D1*
X639440Y469315D1*
X633736Y470836D1*
X624141D1*
X618393Y469315D1*
X614591Y467794D1*
X610744Y464717D1*
X608843Y460119D1*
Y449401D1*
X614591Y499076D2*
X610788Y497555D1*
X608887Y492956D1*
Y489914D1*
X610788Y485316D1*
X616536Y482239D1*
X626087Y480718D1*
X635637D1*
X643287Y482238D1*
X647133Y485316D1*
X649035Y489914D1*
Y491435D1*
X647133Y495998D1*
X643287Y499076D1*
X637539Y500597D1*
X635637D1*
X629889Y499076D1*
X626087Y495998D1*
X624185Y491435D1*
Y489914D1*
X626087Y485316D1*
X629889Y482239D1*
X635637Y480718D1*
X608843Y348623D2*
X649035D1*
Y359340D1*
X647089Y363939D1*
X643287Y367016D1*
X639440Y368537D1*
X633736Y370058D1*
X624141D1*
X618393Y368537D1*
X614591Y367016D1*
X610744Y363939D1*
X608843Y359340D1*
Y348623D1*
X649035Y386059D2*
X608887Y401375D1*
Y379939D1*
X1295063Y1125082D2*
X1335255D1*
Y1135799D1*
X1333310Y1140398D1*
X1329507Y1143475D1*
X1325660Y1144996D1*
X1319956Y1146517D1*
X1310362D1*
X1304614Y1144996D1*
X1300811Y1143475D1*
X1296964Y1140398D1*
X1295063Y1135799D1*
Y1125082D1*
X1302757Y1156398D2*
X1300811Y1159476D1*
X1295107Y1164074D1*
X1335255D1*
X1295107Y1183152D2*
X1297009Y1178554D1*
X1302757Y1175476D1*
X1312307Y1173955D1*
X1318055D1*
X1327606Y1175476D1*
X1333354Y1178554D1*
X1335255Y1183152D1*
Y1186194D1*
X1333354Y1190793D1*
X1327606Y1193835D1*
X1318055Y1195391D1*
X1312307D1*
X1302757Y1193835D1*
X1297009Y1190793D1*
X1295107Y1186194D1*
Y1183152D1*
X1302757Y1193835D2*
X1327606Y1175476D1*
X1767563Y400111D2*
X1766042Y403913D1*
X1762965Y407760D1*
X1759923Y409661D1*
X1753803D1*
X1750726Y407760D1*
X1747684Y403913D1*
X1746127Y400111D1*
X1744606Y394363D1*
Y384768D1*
X1746127Y379064D1*
X1747684Y375217D1*
X1750726Y371415D1*
X1753803Y369469D1*
X1759923D1*
X1762965Y371415D1*
X1766042Y375217D1*
X1767563Y379064D1*
Y384768D1*
X1759923D1*
X1798880Y409661D2*
Y369469D1*
X1777444Y409661D1*
Y369469D1*
X1808761Y409661D2*
Y369469D1*
X1819479D1*
X1824077Y371415D1*
X1827155Y375217D1*
X1828676Y379064D1*
X1830197Y384768D1*
Y394363D1*
X1828676Y400111D1*
X1827155Y403913D1*
X1824077Y407760D1*
X1819479Y409661D1*
X1808761D1*
X715328Y510055D2*
Y469863D1*
X746645Y510055D2*
Y469863D1*
X725209Y510055D1*
Y469863D1*
X767244Y510055D2*
Y469863D1*
X756526Y510055D2*
X777962D1*
X809279Y504307D2*
X806237Y508154D1*
X801638Y510055D1*
X795519D1*
X790920Y508154D1*
X787843Y504307D1*
Y500505D1*
X789399Y496658D1*
X790920Y494756D1*
X793962Y492855D1*
X803159Y489008D1*
X806237Y487107D1*
X807758Y485162D1*
X809279Y481359D1*
Y475611D1*
X806237Y471809D1*
X801638Y469863D1*
X795519D1*
X790920Y471809D1*
X787843Y475611D1*
X819160Y510055D2*
X826835Y469863D1*
X834476Y510055D1*
X842116Y469863D1*
X849792Y510055D1*
X859673Y502362D2*
X862751Y504307D1*
X867349Y510011D1*
Y469863D1*
X806873Y860449D2*
Y820257D1*
X838190Y860449D2*
Y820257D1*
X816754Y860449D1*
Y820257D1*
X858789Y860449D2*
Y820257D1*
X848071Y860449D2*
X869507D1*
X900824Y854701D2*
X897782Y858548D1*
X893183Y860449D1*
X887064D1*
X882465Y858548D1*
X879388Y854701D1*
Y850898D1*
X880944Y847051D1*
X882465Y845150D1*
X885507Y843249D1*
X894704Y839402D1*
X897782Y837501D1*
X899303Y835555D1*
X900824Y831753D1*
Y826005D1*
X897782Y822202D1*
X893183Y820257D1*
X887064D1*
X882465Y822202D1*
X879388Y826005D1*
X910705Y860449D2*
X918381Y820257D1*
X926021Y860449D1*
X933662Y820257D1*
X941337Y860449D1*
X952775Y850854D2*
Y852755D1*
X954296Y856602D1*
X955817Y858503D1*
X958894Y860405D1*
X965014D1*
X968056Y858503D1*
X969577Y856602D1*
X971133Y852755D1*
Y848953D1*
X969577Y845106D1*
X966535Y839402D1*
X951219Y820257D1*
X972654D1*
X416422Y1718683D2*
X456614D1*
X422170Y1750000D2*
X418323Y1746958D1*
X416422Y1742360D1*
Y1736240D1*
X418323Y1731642D1*
X422170Y1728564D1*
X425972D1*
X429819Y1730121D1*
X431720Y1731642D1*
X433621Y1734684D1*
X437468Y1743881D1*
X439370Y1746958D1*
X441315Y1748479D1*
X445118Y1750000D1*
X450866D1*
X454668Y1746958D1*
X456614Y1742360D1*
Y1736240D1*
X454668Y1731642D1*
X450866Y1728564D1*
X437468Y1759881D2*
Y1773676D1*
X435567Y1778239D1*
X433621Y1779796D1*
X429819Y1781317D1*
X424071D1*
X420268Y1779796D1*
X418323Y1778240D1*
X416422Y1773676D1*
Y1759881D1*
X456614D1*
X1763567Y1490768D2*
X1792263D1*
X1798011Y1492289D1*
X1801814Y1495367D1*
X1803759Y1499965D1*
Y1503007D1*
X1801814Y1507606D1*
X1798011Y1510683D1*
X1792263Y1512204D1*
X1763567D1*
X1803759Y1546598D2*
X1763567Y1534324D1*
X1803759Y1522085D1*
X1790362Y1526683D2*
Y1542000D1*
X1782712Y1556479D2*
Y1570239D1*
X1780767Y1574838D1*
X1778866Y1576394D1*
X1775063Y1577915D1*
X1771216D1*
X1767414Y1576394D1*
X1765468Y1574838D1*
X1763567Y1570239D1*
Y1556479D1*
X1803759D1*
X1782712Y1567197D2*
X1803759Y1577915D1*
X1763567Y1598514D2*
X1803759D1*
X1763567Y1587796D2*
Y1609232D1*
X1504414Y536902D2*
X1544606D1*
Y555261D1*
X1504414Y574339D2*
X1506315Y571261D1*
X1510162Y568219D1*
X1513964Y566663D1*
X1519712Y565142D1*
X1529307D1*
X1535011Y566663D1*
X1538858Y568219D1*
X1542660Y571261D1*
X1544606Y574339D1*
Y580458D1*
X1542660Y583500D1*
X1538858Y586578D1*
X1535011Y588099D1*
X1529307Y589620D1*
X1519712D1*
X1513964Y588099D1*
X1510162Y586578D1*
X1506315Y583500D1*
X1504414Y580458D1*
Y574339D1*
X1510162Y620936D2*
X1506315Y617894D1*
X1504414Y613296D1*
Y607177D1*
X1506315Y602578D1*
X1510162Y599501D1*
X1513964D1*
X1517811Y601057D1*
X1519712Y602578D1*
X1521614Y605620D1*
X1525460Y614817D1*
X1527362Y617894D1*
X1529307Y619415D1*
X1533110Y620936D1*
X1538858D1*
X1542660Y617894D1*
X1544606Y613296D1*
Y607177D1*
X1542660Y602578D1*
X1538858Y599501D1*
X1525460Y630818D2*
Y644613D1*
X1523559Y649176D1*
X1521614Y650732D1*
X1517811Y652253D1*
X1512063D1*
X1508260Y650732D1*
X1506315Y649176D1*
X1504414Y644613D1*
Y630818D1*
X1544606D1*
X1504414Y662134D2*
X1544606D1*
Y672852D1*
X1542660Y677451D1*
X1538858Y680528D1*
X1535011Y682049D1*
X1529307Y683570D1*
X1519712D1*
X1513964Y682049D1*
X1510162Y680528D1*
X1506315Y677451D1*
X1504414Y672852D1*
Y662134D1*
X249870Y996674D2*
Y1010469D1*
X247969Y1015032D1*
X246023Y1016589D1*
X242221Y1018110D1*
X236472D1*
X232670Y1016589D1*
X230724Y1015032D1*
X228823Y1010469D1*
Y996674D1*
X269015D1*
X228823Y1027991D2*
X269015Y1035667D1*
X228823Y1043307D1*
X269015Y1050948D1*
X228823Y1058623D1*
X247969Y1068505D2*
Y1082264D1*
X246023Y1086863D1*
X244122Y1088419D1*
X240319Y1089940D1*
X236472D1*
X232670Y1088419D1*
X230724Y1086863D1*
X228823Y1082264D1*
Y1068505D1*
X269015D1*
X247969Y1079222D2*
X269015Y1089940D1*
X1452924Y1040567D2*
X1449882Y1038710D1*
X1446805Y1034863D1*
X1445284Y1031016D1*
X1443727Y1025268D1*
Y1015718D1*
X1445284Y1009970D1*
X1446805Y1006167D1*
X1449882Y1002320D1*
X1452924Y1000419D1*
X1459044D1*
X1462121Y1002320D1*
X1465163Y1006167D1*
X1466684Y1009970D1*
X1468241Y1015718D1*
Y1025268D1*
X1466684Y1031016D1*
X1465163Y1034863D1*
X1462121Y1038710D1*
X1459044Y1040567D1*
X1452924D1*
X1457523Y1008068D2*
X1466684Y996572D1*
X1478122Y1032873D2*
X1481199Y1034819D1*
X1485798Y1040523D1*
Y1000375D1*
X1545704Y1380504D2*
Y1394264D1*
X1543759Y1398862D1*
X1541858Y1400418D1*
X1538055Y1401939D1*
X1534208Y1401940D1*
X1530406Y1400418D1*
X1528460Y1398862D1*
X1526559Y1394264D1*
Y1380504D1*
X1566751D1*
X1545704Y1391222D2*
X1566751Y1401939D1*
X1534253Y1411821D2*
X1532307Y1414898D1*
X1526603Y1419496D1*
X1566751D1*
X59976Y648624D2*
Y662384D1*
X58031Y666982D1*
X56130Y668539D1*
X52327Y670060D1*
X48480D1*
X44678Y668539D1*
X42732Y666982D1*
X40831Y662384D1*
Y648624D1*
X81023D1*
X59976Y659342D2*
X81023Y670059D1*
X50426Y681497D2*
X48525D1*
X44678Y683018D1*
X42777Y684539D1*
X40875Y687616D1*
Y693736D1*
X42777Y696778D1*
X44678Y698299D1*
X48525Y699855D1*
X52327D1*
X56174Y698299D1*
X61878Y695257D1*
X81023Y679941D1*
Y701376D1*
X1237240Y1686222D2*
Y1699982D1*
X1235294Y1704581D1*
X1233393Y1706137D1*
X1229591Y1707658D1*
X1225744D1*
X1221941Y1706137D1*
X1219996Y1704581D1*
X1218095Y1699982D1*
Y1686222D1*
X1258287D1*
X1237240Y1696940D2*
X1258287Y1707658D1*
X1218139Y1720616D2*
Y1737418D1*
X1233437Y1728257D1*
Y1732855D1*
X1235339Y1735897D1*
X1237240Y1737418D1*
X1242988Y1738975D1*
X1246791D1*
X1252539Y1737418D1*
X1256385Y1734376D1*
X1258287Y1729778D1*
Y1725179D1*
X1256385Y1720616D1*
X1254440Y1719095D1*
X1250637Y1717539D1*
X608303Y847863D2*
Y861623D1*
X606357Y866222D1*
X604456Y867778D1*
X600654Y869299D1*
X596807D1*
X593004Y867778D1*
X591059Y866222D1*
X589158Y861623D1*
Y847863D1*
X629350D1*
X608303Y858581D2*
X629350Y869299D1*
Y894496D2*
X589202D1*
X615952Y879180D1*
Y902137D1*
X1043506Y381855D2*
X1057265D1*
X1061864Y383800D1*
X1063420Y385701D1*
X1064941Y389504D1*
Y393351D1*
X1063420Y397153D1*
X1061864Y399099D1*
X1057265Y401000D1*
X1043506D1*
Y360808D1*
X1054223Y381855D2*
X1064941Y360808D1*
X1093181Y400956D2*
X1077900D1*
X1076379Y383756D1*
X1077900Y385657D1*
X1082498Y387603D1*
X1087061D1*
X1091660Y385657D1*
X1094737Y381855D1*
X1096258Y376107D1*
Y372304D1*
X1094737Y366556D1*
X1091660Y362709D1*
X1087061Y360808D1*
X1082498D1*
X1077900Y362709D1*
X1076379Y364655D1*
X1074822Y368457D1*
X43835Y224402D2*
Y238162D1*
X41889Y242760D1*
X39988Y244317D1*
X36185Y245838D1*
X32339D1*
X28536Y244317D1*
X26591Y242760D1*
X24689Y238162D1*
Y224402D1*
X64881D1*
X43835Y235120D2*
X64881Y245838D1*
X30437Y274077D2*
X26635Y272556D1*
X24734Y267958D1*
Y264916D1*
X26635Y260317D1*
X32383Y257240D1*
X41933Y255719D1*
X51484D1*
X59133Y257240D1*
X62980Y260317D1*
X64881Y264916D1*
Y266437D1*
X62980Y271000D1*
X59133Y274077D1*
X53385Y275598D1*
X51484D1*
X45736Y274077D1*
X41933Y271000D1*
X40032Y266437D1*
Y264916D1*
X41933Y260317D1*
X45736Y257240D1*
X51484Y255719D1*
X683106Y648624D2*
Y662384D1*
X681161Y666982D1*
X679259Y668539D1*
X675457Y670060D1*
X671610D1*
X667807Y668539D1*
X665862Y666982D1*
X663961Y662384D1*
Y648624D1*
X704153D1*
X683106Y659342D2*
X704153Y670059D1*
Y686060D2*
X664005Y701376D1*
Y679941D1*
X549445Y223642D2*
Y237401D1*
X547499Y242000D1*
X545598Y243556D1*
X541795Y245077D1*
X537949D1*
X534146Y243556D1*
X532201Y242000D1*
X530299Y237401D1*
Y223642D1*
X570491D1*
X549445Y234359D2*
X570491Y245077D1*
X530344Y262599D2*
X532245Y258036D1*
X536047Y256479D1*
X539894D1*
X543697Y258036D1*
X545642Y261078D1*
X547543Y267197D1*
X549445Y271796D1*
X553291Y274838D1*
X557094Y276359D1*
X562842D1*
X566645Y274838D1*
X568590Y273317D1*
X570491Y268718D1*
Y262599D1*
X568590Y258036D1*
X566645Y256479D1*
X562842Y254958D1*
X557094D1*
X553291Y256479D1*
X549445Y259557D1*
X547543Y264120D1*
X545642Y270239D1*
X543697Y273317D1*
X539894Y274838D1*
X536047D1*
X532245Y273317D1*
X530344Y268718D1*
Y262599D1*
X1061786Y1168961D2*
X1075546D1*
X1080144Y1170906D1*
X1081701Y1172807D1*
X1083222Y1176610D1*
Y1180457D1*
X1081701Y1184259D1*
X1080144Y1186205D1*
X1075546Y1188106D1*
X1061786D1*
Y1147914D1*
X1072504Y1168961D2*
X1083222Y1147914D1*
X1113017Y1174709D2*
X1111461Y1168961D1*
X1108419Y1165114D1*
X1103821Y1163213D1*
X1102299D1*
X1097701Y1165114D1*
X1094659Y1168961D1*
X1093103Y1174709D1*
Y1176610D1*
X1094659Y1182358D1*
X1097701Y1186161D1*
X1102299Y1188062D1*
X1103821D1*
X1108419Y1186161D1*
X1111461Y1182358D1*
X1113017Y1174709D1*
Y1165114D1*
X1111461Y1155563D1*
X1108419Y1149815D1*
X1103821Y1147914D1*
X1100778D1*
X1096180Y1149815D1*
X1094659Y1153662D1*
X984976Y964845D2*
Y978605D1*
X983031Y983204D1*
X981130Y984760D1*
X977327Y986281D1*
X973480D1*
X969678Y984760D1*
X967732Y983204D1*
X965831Y978605D1*
Y964845D1*
X1006023D1*
X984976Y975563D2*
X1006023Y986281D1*
X973525Y996162D2*
X971579Y999240D1*
X965875Y1003838D1*
X1006023D1*
X965875Y1022916D2*
X967777Y1018318D1*
X973525Y1015240D1*
X983075Y1013719D1*
X988823D1*
X998374Y1015240D1*
X1004122Y1018317D1*
X1006023Y1022916D1*
Y1025958D1*
X1004122Y1030556D1*
X998374Y1033598D1*
X988823Y1035155D1*
X983075D1*
X973525Y1033598D1*
X967777Y1030556D1*
X965875Y1025958D1*
Y1022916D1*
X973525Y1033598D2*
X998374Y1015240D1*
X1545704Y1271725D2*
Y1285485D1*
X1543759Y1290084D1*
X1541858Y1291640D1*
X1538055Y1293161D1*
X1534208D1*
X1530406Y1291640D1*
X1528460Y1290084D1*
X1526559Y1285485D1*
Y1271725D1*
X1566751D1*
X1545704Y1282443D2*
X1566751Y1293161D1*
X1534253Y1303042D2*
X1532307Y1306120D1*
X1526603Y1310718D1*
X1566751D1*
X1534253Y1320599D2*
X1532307Y1323676D1*
X1526603Y1328275D1*
X1566751D1*
X735173Y1064845D2*
Y1078605D1*
X733228Y1083204D1*
X731326Y1084760D1*
X727524Y1086281D1*
X723677D1*
X719875Y1084760D1*
X717929Y1083204D1*
X716028Y1078605D1*
Y1064845D1*
X756220D1*
X735173Y1075563D2*
X756220Y1086281D1*
X723721Y1096162D2*
X721776Y1099240D1*
X716072Y1103838D1*
X756220D1*
X725623Y1115275D2*
X723721D1*
X719875Y1116797D1*
X717973Y1118318D1*
X716072Y1121395D1*
Y1127514D1*
X717973Y1130556D1*
X719875Y1132077D1*
X723721Y1133634D1*
X727524D1*
X731371Y1132077D1*
X737075Y1129035D1*
X756220Y1113719D1*
Y1135155D1*
X1527247Y387760D2*
X1541007D1*
X1545605Y389706D1*
X1547162Y391607D1*
X1548683Y395409D1*
Y399256D1*
X1547162Y403059D1*
X1545605Y405004D1*
X1541007Y406905D1*
X1527247D1*
Y366713D1*
X1537965Y387760D2*
X1548683Y366713D1*
X1558564Y399212D2*
X1561641Y401157D1*
X1566239Y406861D1*
Y366713D1*
X1579198Y406861D2*
X1596000D1*
X1586838Y391563D1*
X1591437D1*
X1594479Y389661D1*
X1596000Y387760D1*
X1597556Y382012D1*
Y378210D1*
X1596000Y372462D1*
X1592958Y368615D1*
X1588359Y366713D1*
X1583761D1*
X1579198Y368615D1*
X1577677Y370560D1*
X1576121Y374363D1*
X205504Y1832006D2*
Y1803310D1*
X207025Y1797562D1*
X210102Y1793759D1*
X214701Y1791814D1*
X217743D1*
X222341Y1793759D1*
X225418Y1797562D1*
X226939Y1803310D1*
Y1832006D1*
X236821Y1824312D2*
X239898Y1826258D1*
X244496Y1831961D1*
Y1791814D1*
X748624Y1215764D2*
Y1187068D1*
X750145Y1181320D1*
X753222Y1177517D1*
X757821Y1175572D1*
X760863D1*
X765461Y1177517D1*
X768538Y1181320D1*
X770059Y1187068D1*
Y1215764D1*
X781497Y1206169D2*
Y1208070D1*
X783018Y1211917D1*
X784539Y1213818D1*
X787616Y1215720D1*
X793736D1*
X796778Y1213818D1*
X798299Y1211917D1*
X799855Y1208070D1*
Y1204268D1*
X798299Y1200421D1*
X795257Y1194717D1*
X779941Y1175572D1*
X801376D1*
X126461Y34595D2*
X166653Y42271D1*
X126461Y49911D1*
X166653Y57552D1*
X126461Y65228D1*
X166653Y99622D2*
X126461Y87348D1*
X166653Y75109D1*
X153256Y79707D2*
Y95023D1*
X132209Y130939D2*
X128362Y127897D1*
X126461Y123298D1*
Y117179D1*
X128362Y112580D1*
X132209Y109503D1*
X136012D1*
X139858Y111059D1*
X141760Y112580D1*
X143661Y115622D1*
X147508Y124819D1*
X149409Y127897D1*
X151354Y129418D1*
X155157Y130939D1*
X160905D1*
X164707Y127897D1*
X166653Y123298D1*
Y117179D1*
X164707Y112580D1*
X160905Y109503D1*
X126461Y140820D2*
X166653D1*
X126461Y162255D2*
X166653D1*
X145606Y140820D2*
Y162255D1*
X1681087Y1494152D2*
Y1453960D1*
X1670369Y1494152D2*
X1691804D1*
X1701686D2*
X1723121Y1453960D1*
Y1494152D2*
X1701686Y1453960D1*
X1570369Y1475007D2*
X1584129D1*
X1588727Y1476952D1*
X1590283Y1478854D1*
X1591804Y1482656D1*
Y1486503D1*
X1590283Y1490305D1*
X1588727Y1492251D1*
X1584129Y1494152D1*
X1570369D1*
Y1453960D1*
X1581087Y1475007D2*
X1591804Y1453960D1*
X1601686Y1494152D2*
X1623121Y1453960D1*
Y1494152D2*
X1601686Y1453960D1*
X1468325Y1484602D2*
X1466804Y1488404D1*
X1463727Y1492251D1*
X1460685Y1494152D1*
X1454566D1*
X1451488Y1492251D1*
X1448446Y1488404D1*
X1446890Y1484602D1*
X1445369Y1478854D1*
Y1469259D1*
X1446890Y1463555D1*
X1448446Y1459708D1*
X1451488Y1455906D1*
X1454566Y1453960D1*
X1460685D1*
X1463727Y1455906D1*
X1466804Y1459708D1*
X1468325Y1463555D1*
Y1469259D1*
X1460685D1*
X1499642Y1494152D2*
Y1453960D1*
X1478207Y1494152D1*
Y1453960D1*
X1509523Y1494152D2*
Y1453960D1*
X1520241D1*
X1524840Y1455906D1*
X1527917Y1459708D1*
X1529438Y1463555D1*
X1530959Y1469259D1*
Y1478854D1*
X1529438Y1484602D1*
X1527917Y1488404D1*
X1524840Y1492251D1*
X1520241Y1494152D1*
X1509523D1*
X1050573Y1608608D2*
X1010381D1*
X1050573Y1596369D1*
X1010381Y1584130D1*
X1050573D1*
X1010381Y1618489D2*
X1050573D1*
X1016129Y1649806D2*
X1012282Y1646764D1*
X1010381Y1642165D1*
Y1636046D1*
X1012282Y1631447D1*
X1016129Y1628370D1*
X1019931D1*
X1023778Y1629926D1*
X1025679Y1631447D1*
X1027581Y1634489D1*
X1031427Y1643686D1*
X1033329Y1646764D1*
X1035274Y1648285D1*
X1039077Y1649806D1*
X1044825D1*
X1048627Y1646764D1*
X1050573Y1642165D1*
Y1636046D1*
X1048627Y1631447D1*
X1044825Y1628370D1*
X1010381Y1668884D2*
X1012282Y1665806D1*
X1016129Y1662764D1*
X1019931Y1661208D1*
X1025679Y1659687D1*
X1035274D1*
X1040978Y1661208D1*
X1044825Y1662764D1*
X1048627Y1665806D1*
X1050573Y1668884D1*
Y1675003D1*
X1048627Y1678045D1*
X1044825Y1681122D1*
X1040978Y1682643D1*
X1035274Y1684164D1*
X1025679D1*
X1019931Y1682643D1*
X1016129Y1681122D1*
X1012282Y1678045D1*
X1010381Y1675003D1*
Y1668884D1*
X750573Y1608608D2*
X710381D1*
X750573Y1596369D1*
X710381Y1584130D1*
X750573D1*
X710381Y1627686D2*
X712282Y1624608D1*
X716129Y1621566D1*
X719931Y1620010D1*
X725679Y1618489D1*
X735274D1*
X740978Y1620010D1*
X744825Y1621566D1*
X748627Y1624608D1*
X750573Y1627686D1*
Y1633805D1*
X748627Y1636847D1*
X744825Y1639924D1*
X740978Y1641446D1*
X735274Y1642967D1*
X725679D1*
X719931Y1641446D1*
X716129Y1639925D1*
X712282Y1636847D1*
X710381Y1633805D1*
Y1627686D1*
X716129Y1674283D2*
X712282Y1671241D1*
X710381Y1666643D1*
Y1660523D1*
X712282Y1655925D1*
X716129Y1652848D1*
X719931D1*
X723778Y1654404D1*
X725679Y1655925D1*
X727581Y1658967D1*
X731427Y1668164D1*
X733329Y1671241D1*
X735274Y1672762D1*
X739077Y1674283D1*
X744825D1*
X748627Y1671241D1*
X750573Y1666643D1*
Y1660523D1*
X748627Y1655925D1*
X744825Y1652848D1*
X710381Y1684165D2*
X750573Y1684164D1*
X808906Y1612789D2*
X805059Y1609747D1*
X803158Y1605148D1*
Y1599029D1*
X805059Y1594430D1*
X808906Y1591353D1*
X812708D1*
X816555Y1592909D1*
X818456Y1594430D1*
X820357Y1597473D1*
X824204Y1606669D1*
X826105Y1609747D1*
X828051Y1611268D1*
X831854Y1612789D1*
X837602D1*
X841404Y1609747D1*
X843350Y1605148D1*
Y1599029D1*
X841404Y1594430D1*
X837601Y1591353D1*
X812708Y1645627D2*
X808906Y1644106D1*
X805059Y1641028D1*
X803158Y1637986D1*
Y1631867D1*
X805059Y1628789D1*
X808906Y1625747D1*
X812708Y1624191D1*
X818456Y1622670D1*
X828051D1*
X833755Y1624191D1*
X837602Y1625747D1*
X841404Y1628789D1*
X843350Y1631867D1*
Y1637986D1*
X841404Y1641028D1*
X837602Y1644106D1*
X833755Y1645627D1*
X803158Y1655508D2*
X843350D1*
X803158Y1676943D2*
X829952Y1655508D1*
X820357Y1663148D2*
X843350Y1676943D1*
X621543Y1604613D2*
Y1618373D1*
X619598Y1622971D1*
X617696Y1624528D1*
X613894Y1626049D1*
X610047D1*
X606244Y1624528D1*
X604299Y1622971D1*
X602398Y1618373D1*
Y1604613D1*
X642590D1*
X621543Y1615331D2*
X642590Y1626049D1*
X608146Y1657365D2*
X604299Y1654323D1*
X602398Y1649725D1*
Y1643606D1*
X604299Y1639007D1*
X608146Y1635930D1*
X611948D1*
X615795Y1637486D1*
X617696Y1639007D1*
X619598Y1642049D1*
X623444Y1651246D1*
X625346Y1654323D1*
X627291Y1655844D1*
X631094Y1657365D1*
X636842D1*
X640644Y1654323D1*
X642590Y1649725D1*
Y1643605D1*
X640644Y1639007D1*
X636842Y1635930D1*
X602398Y1677964D2*
X642590D1*
X602398Y1667247D2*
Y1688682D1*
X505825Y1672102D2*
X504304Y1675904D1*
X501227Y1679751D1*
X498185Y1681652D1*
X492066D1*
X488988Y1679751D1*
X485946Y1675904D1*
X484390Y1672102D1*
X482869Y1666354D1*
Y1656759D1*
X484390Y1651055D1*
X485946Y1647208D1*
X488988Y1643406D1*
X492066Y1641460D1*
X498185D1*
X501227Y1643406D1*
X504304Y1647208D1*
X505825Y1651055D1*
Y1656759D1*
X498185D1*
X537142Y1681652D2*
Y1641460D1*
X515707Y1681652D1*
Y1641460D1*
X547023Y1681652D2*
Y1641460D1*
X557741D1*
X562340Y1643406D1*
X565417Y1647208D1*
X566938Y1651055D1*
X568459Y1656759D1*
Y1666354D1*
X566938Y1672102D1*
X565417Y1675904D1*
X562340Y1679751D1*
X557741Y1681652D1*
X547023D1*
X905440Y1589071D2*
X945632Y1601310D1*
X905440Y1613549D1*
X914990Y1646386D2*
X911188Y1644865D1*
X907341Y1641788D1*
X905440Y1638746D1*
Y1632627D1*
X907341Y1629549D1*
X911188Y1626507D1*
X914990Y1624951D1*
X920738Y1623430D1*
X930333D1*
X936037Y1624951D1*
X939884Y1626507D1*
X943686Y1629549D1*
X945632Y1632627D1*
Y1638746D1*
X943686Y1641788D1*
X939884Y1644865D1*
X936037Y1646386D1*
X914990Y1679224D2*
X911188Y1677703D1*
X907341Y1674626D1*
X905440Y1671584D1*
Y1665464D1*
X907341Y1662387D1*
X911188Y1659345D1*
X914990Y1657789D1*
X920738Y1656268D1*
X930333D1*
X936037Y1657789D1*
X939884Y1659345D1*
X943686Y1662387D1*
X945632Y1665464D1*
Y1671584D1*
X943686Y1674626D1*
X939884Y1677703D1*
X936037Y1679224D1*
X1190058Y290520D2*
D98*
Y340760D1*
X1174759Y290520D1*
X1159461Y340760D1*
Y290520D1*
X1225357Y324014D2*
Y290520D1*
Y316829D2*
X1221555Y321637D1*
X1217708Y324014D1*
X1212004D1*
X1208158Y321637D1*
X1204355Y316829D1*
X1202409Y309644D1*
Y304891D1*
X1204355Y297706D1*
X1208158Y292952D1*
X1212004Y290520D1*
X1217708D1*
X1221555Y292952D1*
X1225357Y297706D1*
X1237709Y324014D2*
X1258755D1*
X1237709Y290520D1*
X1258755D1*
X1294055Y340760D2*
Y290520D1*
Y316829D2*
X1290252Y321637D1*
X1286405Y324014D1*
X1280657D1*
X1276855Y321637D1*
X1273008Y316829D1*
X1271107Y309644D1*
Y304891D1*
X1273008Y297706D1*
X1276855Y292952D1*
X1280657Y290520D1*
X1286405D1*
X1290252Y292952D1*
X1294055Y297706D1*
X1329354Y324014D2*
Y290520D1*
Y316829D2*
X1325551Y321637D1*
X1321705Y324014D1*
X1316001D1*
X1312154Y321637D1*
X1308352Y316829D1*
X1306406Y309644D1*
Y304891D1*
X1308352Y297706D1*
X1312154Y292952D1*
X1316001Y290520D1*
X1321705D1*
X1325551Y292952D1*
X1329354Y297706D1*
X1380586Y316829D2*
X1397786D1*
X1403534Y319261D1*
X1405480Y321637D1*
X1407381Y326390D1*
Y331199D1*
X1405480Y335952D1*
X1403534Y338384D1*
X1397786Y340760D1*
X1380586D1*
Y290520D1*
X1393984Y316829D2*
X1407381Y290520D1*
X1419732Y340760D2*
X1446527Y290520D1*
Y340760D2*
X1419732Y290520D1*
X1458878Y315613D2*
X1480986D1*
X1502888Y340705D2*
X1497184Y338329D1*
X1495239Y333575D1*
Y328767D1*
X1497184Y324014D1*
X1500987Y321582D1*
X1508636Y319205D1*
X1514384Y316829D1*
X1518187Y312020D1*
X1520088Y307267D1*
Y300082D1*
X1518187Y295329D1*
X1516285Y292897D1*
X1510537Y290520D1*
X1502888D1*
X1497184Y292897D1*
X1495239Y295329D1*
X1493338Y300082D1*
Y307267D1*
X1495239Y312020D1*
X1499086Y316829D1*
X1504789Y319205D1*
X1512439Y321582D1*
X1516285Y324014D1*
X1518187Y328767D1*
Y333575D1*
X1516285Y338329D1*
X1510537Y340705D1*
X1502888D1*
X869654Y258575D2*
X865852Y263384D1*
X860104Y265760D1*
X852455D1*
X846707Y263384D1*
X842860Y258575D1*
Y253822D1*
X844805Y249014D1*
X846707Y246637D1*
X850509Y244261D1*
X862005Y239452D1*
X865852Y237076D1*
X867753Y234644D1*
X869654Y229891D1*
Y222706D1*
X865852Y217952D1*
X860104Y215520D1*
X852455D1*
X846707Y217952D1*
X842860Y222706D1*
X882006Y249014D2*
Y198774D1*
Y241829D2*
X885853Y246582D1*
X889655Y249014D1*
X895403D1*
X899250Y246582D1*
X903053Y241829D1*
X904998Y234644D1*
Y229835D1*
X903053Y222706D1*
X899250Y217897D1*
X895403Y215520D1*
X889655D1*
X885853Y217897D1*
X882006Y222706D1*
X917349Y234644D2*
X940297D1*
Y239452D1*
X938396Y244261D1*
X936495Y246637D1*
X932648Y249014D1*
X926900D1*
X923097Y246637D1*
X919251Y241829D1*
X917349Y234644D1*
Y229891D1*
X919251Y222706D1*
X923097Y217952D1*
X926900Y215520D1*
X932648D1*
X936495Y217952D1*
X940297Y222706D1*
X952649Y234644D2*
X975597D1*
Y239452D1*
X973695Y244261D1*
X971794Y246637D1*
X967947Y249014D1*
X962199D1*
X958397Y246637D1*
X954550Y241829D1*
X952649Y234644D1*
Y229891D1*
X954550Y222706D1*
X958397Y217952D1*
X962199Y215520D1*
X967947D1*
X971794Y217952D1*
X975597Y222706D1*
X1010896Y265760D2*
Y215520D1*
Y241829D2*
X1007093Y246637D1*
X1003247Y249014D1*
X997499D1*
X993696Y246637D1*
X989849Y241829D1*
X987948Y234644D1*
Y229891D1*
X989849Y222706D1*
X993696Y217952D1*
X997499Y215520D1*
X1003247D1*
X1007093Y217952D1*
X1010896Y222706D1*
X1023247Y240613D2*
X1045355D1*
X1078753Y241829D2*
X1076852Y246637D1*
X1071104Y249014D1*
X1065356D1*
X1059608Y246637D1*
X1057707Y241829D1*
X1059608Y237076D1*
X1063455Y234644D1*
X1073005Y232267D1*
X1076852Y229891D1*
X1078753Y225082D1*
Y222706D1*
X1076852Y217952D1*
X1071104Y215520D1*
X1065356D1*
X1059608Y217952D1*
X1057707Y222706D1*
X1091105Y234644D2*
X1114052D1*
Y239452D1*
X1112151Y244261D1*
X1110250Y246637D1*
X1106403Y249014D1*
X1100655D1*
X1096853Y246637D1*
X1093006Y241829D1*
X1091105Y234644D1*
Y229891D1*
X1093006Y222706D1*
X1096853Y217952D1*
X1100655Y215520D1*
X1106403D1*
X1110250Y217952D1*
X1114052Y222706D1*
X1126404Y249014D2*
Y215520D1*
Y239452D2*
X1132152Y246637D1*
X1135999Y249014D1*
X1141702D1*
X1145549Y246637D1*
X1147451Y239452D1*
Y215520D1*
X1180849Y241829D2*
X1178947Y246637D1*
X1173199Y249014D1*
X1167451D1*
X1161703Y246637D1*
X1159802Y241829D1*
X1161703Y237076D1*
X1165550Y234644D1*
X1175101Y232267D1*
X1178947Y229891D1*
X1180849Y225082D1*
Y222706D1*
X1178947Y217952D1*
X1173199Y215520D1*
X1167451D1*
X1161703Y217952D1*
X1159802Y222706D1*
X1193200Y265760D2*
X1195101Y263384D1*
X1197047Y265760D1*
X1195101Y268192D1*
X1193200Y265760D1*
X1195101Y249014D2*
Y215520D1*
X1215146Y265760D2*
Y225082D1*
X1217047Y217952D1*
X1220894Y215520D1*
X1224697D1*
X1209398Y249014D2*
X1222795D1*
X1237048Y265760D2*
X1238949Y263384D1*
X1240895Y265760D1*
X1238949Y268192D1*
X1237048Y265760D1*
X1238949Y249014D2*
Y215520D1*
X1253246Y249014D2*
X1264742Y215520D1*
X1276194Y249014D1*
X1288546Y234644D2*
X1311493D1*
Y239452D1*
X1309592Y244261D1*
X1307691Y246637D1*
X1303844Y249014D1*
X1298096D1*
X1294294Y246637D1*
X1290447Y241829D1*
X1288546Y234644D1*
Y229891D1*
X1290447Y222706D1*
X1294294Y217952D1*
X1298096Y215520D1*
X1303844D1*
X1307691Y217952D1*
X1311493Y222706D1*
X1362726Y265760D2*
X1372320Y215520D1*
X1381871Y265760D1*
X1391422Y215520D1*
X1401016Y265760D1*
X1413368D2*
X1415269Y263384D1*
X1417215Y265760D1*
X1415269Y268192D1*
X1413368Y265760D1*
X1415269Y249014D2*
Y215520D1*
X1429566Y249014D2*
Y198774D1*
Y241829D2*
X1433413Y246582D1*
X1437215Y249014D1*
X1442963D1*
X1446810Y246582D1*
X1450613Y241829D1*
X1452558Y234644D1*
Y229835D1*
X1450613Y222706D1*
X1446810Y217897D1*
X1442963Y215520D1*
X1437215D1*
X1433413Y217897D1*
X1429566Y222706D1*
X1464909Y234644D2*
X1487857D1*
Y239452D1*
X1485956Y244261D1*
X1484055Y246637D1*
X1480208Y249014D1*
X1474460D1*
X1470657Y246637D1*
X1466811Y241829D1*
X1464909Y234644D1*
Y229891D1*
X1466811Y222706D1*
X1470657Y217952D1*
X1474460Y215520D1*
X1480208D1*
X1484055Y217952D1*
X1487857Y222706D1*
X1500209Y249014D2*
Y215520D1*
Y234644D2*
X1502154Y241829D1*
X1505957Y246637D1*
X1509804Y249014D1*
X1515552D1*
X1548950Y241829D2*
X1547048Y246637D1*
X1541300Y249014D1*
X1535552D1*
X1529804Y246637D1*
X1527903Y241829D1*
X1529804Y237076D1*
X1533651Y234644D1*
X1543202Y232267D1*
X1547048Y229891D1*
X1548950Y225082D1*
Y222706D1*
X1547048Y217952D1*
X1541300Y215520D1*
X1535552D1*
X1529804Y217952D1*
X1527903Y222706D1*
X1600182Y265760D2*
Y229891D1*
X1602083Y222706D1*
X1605930Y217952D1*
X1611678Y215520D1*
X1615480D1*
X1621228Y217952D1*
X1625075Y222706D1*
X1626976Y229891D1*
Y265760D1*
X1639328Y249014D2*
Y198774D1*
Y241829D2*
X1643175Y246582D1*
X1646977Y249014D1*
X1652725D1*
X1656572Y246582D1*
X1660375Y241829D1*
X1662320Y234644D1*
Y229835D1*
X1660375Y222706D1*
X1656572Y217897D1*
X1652725Y215520D1*
X1646977D1*
X1643175Y217897D1*
X1639328Y222706D1*
X1697619Y246637D2*
Y208335D1*
X1695718Y201206D1*
X1693817Y198774D1*
X1689970Y196397D1*
X1684222D1*
X1680419Y198774D1*
X1697619Y239452D2*
X1693817Y244205D1*
X1689970Y246637D1*
X1684222D1*
X1680419Y244205D1*
X1676573Y239452D1*
X1674671Y232267D1*
Y227459D1*
X1676573Y220329D1*
X1680419Y215520D1*
X1684222Y213144D1*
X1689970D1*
X1693817Y215520D1*
X1697619Y220329D1*
X1709971Y249014D2*
Y215520D1*
Y234644D2*
X1711916Y241829D1*
X1715719Y246637D1*
X1719565Y249014D1*
X1725314D1*
X1760613D2*
Y215520D1*
Y241829D2*
X1756810Y246637D1*
X1752964Y249014D1*
X1747260D1*
X1743413Y246637D1*
X1739610Y241829D1*
X1737665Y234644D1*
Y229891D1*
X1739610Y222706D1*
X1743413Y217952D1*
X1747260Y215520D1*
X1752964D1*
X1756810Y217952D1*
X1760613Y222706D1*
X1795912Y265760D2*
Y215520D1*
Y241829D2*
X1792110Y246637D1*
X1788263Y249014D1*
X1782515D1*
X1778712Y246637D1*
X1774866Y241829D1*
X1772964Y234644D1*
Y229891D1*
X1774866Y222706D1*
X1778712Y217952D1*
X1782515Y215520D1*
X1788263D1*
X1792110Y217952D1*
X1795912Y222706D1*
X1808264Y234644D2*
X1831211D1*
Y239452D1*
X1829310Y244261D1*
X1827409Y246637D1*
X1823562Y249014D1*
X1817814D1*
X1814012Y246637D1*
X1810165Y241829D1*
X1808264Y234644D1*
Y229891D1*
X1810165Y222706D1*
X1814012Y217952D1*
X1817814Y215520D1*
X1823562D1*
X1827409Y217952D1*
X1831211Y222706D1*
X924509Y178822D2*
X922607Y183575D1*
X918760Y188384D1*
X914958Y190760D1*
X907309D1*
X903462Y188384D1*
X899659Y183575D1*
X897714Y178822D1*
X895813Y171637D1*
Y159644D1*
X897714Y152514D1*
X899659Y147706D1*
X903462Y142952D1*
X907309Y140520D1*
X914958D1*
X918760Y142952D1*
X922607Y147706D1*
X924509Y152514D1*
X946410Y174014D2*
X942608Y171637D1*
X938761Y166829D1*
X936860Y159644D1*
Y154891D1*
X938761Y147706D1*
X942608Y142952D1*
X946410Y140520D1*
X952159D1*
X956005Y142952D1*
X959808Y147706D1*
X961753Y154891D1*
Y159644D1*
X959808Y166829D1*
X956005Y171637D1*
X952159Y174014D1*
X946410D1*
X974105D2*
Y123774D1*
Y166829D2*
X977951Y171582D1*
X981754Y174014D1*
X987502D1*
X991349Y171582D1*
X995151Y166829D1*
X997097Y159644D1*
Y154835D1*
X995151Y147706D1*
X991349Y142897D1*
X987502Y140520D1*
X981754D1*
X977951Y142897D1*
X974105Y147706D1*
X1011394Y174014D2*
X1022846Y140520D1*
X1019043Y130959D1*
X1015196Y126150D1*
X1011394Y123774D1*
X1009448D1*
X1034342Y174014D2*
X1022846Y140520D1*
X1046693Y174014D2*
Y140520D1*
Y159644D2*
X1048639Y166829D1*
X1052441Y171637D1*
X1056288Y174014D1*
X1062036D1*
X1074387Y190760D2*
X1076289Y188384D1*
X1078234Y190760D1*
X1076289Y193192D1*
X1074387Y190760D1*
X1076289Y174014D2*
Y140520D1*
X1113533Y171637D2*
Y133335D1*
X1111632Y126206D1*
X1109731Y123774D1*
X1105884Y121397D1*
X1100136D1*
X1096333Y123774D1*
X1113533Y164452D2*
X1109731Y169205D1*
X1105884Y171637D1*
X1100136D1*
X1096333Y169205D1*
X1092487Y164452D1*
X1090585Y157267D1*
Y152459D1*
X1092487Y145329D1*
X1096333Y140520D1*
X1100136Y138144D1*
X1105884D1*
X1109731Y140520D1*
X1113533Y145329D1*
X1125885Y190760D2*
Y140520D1*
Y164452D2*
X1131633Y171637D1*
X1135479Y174014D1*
X1141228D1*
X1145030Y171637D1*
X1146931Y164452D1*
Y140520D1*
X1165031Y190760D2*
Y150082D1*
X1166932Y142952D1*
X1170779Y140520D1*
X1174581D1*
X1159283Y174014D2*
X1172680D1*
X1227759Y178767D2*
Y181144D1*
X1229660Y185952D1*
X1231562Y188329D1*
X1235408Y190705D1*
X1243058D1*
X1246860Y188329D1*
X1248761Y185952D1*
X1250707Y181144D1*
Y176390D1*
X1248761Y171582D1*
X1244959Y164452D1*
X1225814Y140520D1*
X1252608D1*
X1276456Y190705D2*
X1270708Y188329D1*
X1266861Y181144D1*
X1264960Y169205D1*
Y162020D1*
X1266861Y150082D1*
X1270708Y142897D1*
X1276456Y140520D1*
X1280258D1*
X1286006Y142897D1*
X1289809Y150082D1*
X1291754Y162020D1*
Y169205D1*
X1289809Y181144D1*
X1286006Y188329D1*
X1280258Y190705D1*
X1276456D1*
X1289809Y181144D2*
X1266861Y150082D1*
X1304106Y181144D2*
X1307952Y183575D1*
X1313700Y190705D1*
Y140520D1*
X1335602Y190705D2*
X1329899Y188329D1*
X1327953Y183575D1*
Y178767D1*
X1329899Y174014D1*
X1333701Y171582D1*
X1341350Y169205D1*
X1347098Y166829D1*
X1350901Y162020D1*
X1352802Y157267D1*
Y150082D1*
X1350901Y145329D1*
X1349000Y142897D1*
X1343252Y140520D1*
X1335602D1*
X1329899Y142897D1*
X1327953Y145329D1*
X1326052Y150082D1*
Y157267D1*
X1327953Y162020D1*
X1331800Y166829D1*
X1337504Y169205D1*
X1345153Y171582D1*
X1349000Y174014D1*
X1350901Y178767D1*
Y183575D1*
X1349000Y188329D1*
X1343252Y190705D1*
X1335602D1*
X1404034Y190760D2*
Y140520D1*
X1421279D1*
X1427027Y142952D1*
X1428928Y145329D1*
X1430829Y150082D1*
Y157267D1*
X1428928Y162076D1*
X1427027Y164452D1*
X1421279Y166829D1*
X1427027Y169261D1*
X1428928Y171637D1*
X1430829Y176390D1*
Y181199D1*
X1428928Y185952D1*
X1427027Y188384D1*
X1421279Y190760D1*
X1404034D1*
Y166829D2*
X1421279D1*
X1466128Y174014D2*
Y140520D1*
Y166829D2*
X1462326Y171637D1*
X1458479Y174014D1*
X1452775D1*
X1448929Y171637D1*
X1445126Y166829D1*
X1443181Y159644D1*
Y154891D1*
X1445126Y147706D1*
X1448929Y142952D1*
X1452775Y140520D1*
X1458479D1*
X1462326Y142952D1*
X1466128Y147706D1*
X1499526Y166829D2*
X1497625Y171637D1*
X1491877Y174014D1*
X1486129D1*
X1480381Y171637D1*
X1478480Y166829D1*
X1480381Y162076D1*
X1484228Y159644D1*
X1493778Y157267D1*
X1497625Y154891D1*
X1499526Y150082D1*
Y147706D1*
X1497625Y142952D1*
X1491877Y140520D1*
X1486129D1*
X1480381Y142952D1*
X1478480Y147706D1*
X1511878Y190760D2*
X1513779Y188384D1*
X1515725Y190760D1*
X1513779Y193192D1*
X1511878Y190760D1*
X1513779Y174014D2*
Y140520D1*
X1528076Y190760D2*
Y140520D1*
X1579308Y190760D2*
Y140520D1*
X1606103Y190760D2*
Y140520D1*
X1579308Y166829D2*
X1606103D1*
X1618454Y174014D2*
Y150082D1*
X1620356Y142952D1*
X1624202Y140520D1*
X1629950D1*
X1633753Y142952D1*
X1639501Y150082D1*
Y174014D2*
Y140520D1*
X1672899Y166829D2*
X1670998Y171637D1*
X1665250Y174014D1*
X1659502D1*
X1653754Y171637D1*
X1651852Y166829D1*
X1653754Y162076D1*
X1657600Y159644D1*
X1667151Y157267D1*
X1670998Y154891D1*
X1672899Y150082D1*
Y147706D1*
X1670998Y142952D1*
X1665250Y140520D1*
X1659502D1*
X1653754Y142952D1*
X1651852Y147706D1*
X1706297Y166829D2*
X1704396Y171637D1*
X1698648Y174014D1*
X1692900D1*
X1687152Y171637D1*
X1685250Y166829D1*
X1687152Y162076D1*
X1690998Y159644D1*
X1700549Y157267D1*
X1704396Y154891D1*
X1706297Y150082D1*
Y147706D1*
X1704396Y142952D1*
X1698648Y140520D1*
X1692900D1*
X1687152Y142952D1*
X1685250Y147706D1*
X1741596Y174014D2*
Y140520D1*
Y166829D2*
X1737794Y171637D1*
X1733947Y174014D1*
X1728243D1*
X1724396Y171637D1*
X1720594Y166829D1*
X1718648Y159644D1*
Y154891D1*
X1720594Y147706D1*
X1724396Y142952D1*
X1728243Y140520D1*
X1733947D1*
X1737794Y142952D1*
X1741596Y147706D1*
X1753948Y190760D2*
X1755849Y188384D1*
X1757794Y190760D1*
X1755849Y193192D1*
X1753948Y190760D1*
X1755849Y174014D2*
Y140520D1*
X1770146Y174014D2*
Y140520D1*
Y164452D2*
X1775894Y171637D1*
X1779741Y174014D1*
X1785444D1*
X1789291Y171637D1*
X1791192Y164452D1*
Y140520D1*
X1320369Y69152D2*
D96*
X1332608Y28960D1*
X1344846Y69152D1*
X1376163Y63404D2*
X1373121Y67251D1*
X1368523Y69152D1*
X1362403D1*
X1357805Y67251D1*
X1354728Y63404D1*
Y59602D1*
X1356284Y55755D1*
X1357805Y53854D1*
X1360847Y51952D1*
X1370044Y48106D1*
X1373121Y46204D1*
X1374642Y44259D1*
X1376163Y40456D1*
Y34708D1*
X1373121Y30906D1*
X1368523Y28960D1*
X1362403D1*
X1357805Y30906D1*
X1354728Y34708D1*
X1407480Y63404D2*
X1404438Y67251D1*
X1399840Y69152D1*
X1393720D1*
X1389122Y67251D1*
X1386044Y63404D1*
Y59602D1*
X1387601Y55755D1*
X1389122Y53854D1*
X1392164Y51952D1*
X1401361Y48106D1*
X1404438Y46204D1*
X1405959Y44259D1*
X1407480Y40456D1*
Y34708D1*
X1404438Y30906D1*
X1399840Y28960D1*
X1393720D1*
X1389122Y30906D1*
X1386044Y34708D1*
M02*
